<svg width="31.264542" height="29.000000" viewBox="0 0 31.2645 29" fill="none" xmlns="http://www.w3.org/2000/svg" xmlns:xlink="http://www.w3.org/1999/xlink">
	<desc>
			Created with Pixso.
	</desc>
	<defs/>
	<path id="Vector" d="M31.1718 2.7041C21.8452 -0.611328 11.7076 -0.885254 2.21558 1.92212C1.83827 2.01221 1.48305 2.17773 1.17108 2.4082C0.859116 2.63892 0.596817 2.92993 0.399857 3.26416C0.202881 3.59839 0.0752869 3.96899 0.0246735 4.35352C-0.0259399 4.73828 0.0014801 5.12915 0.105286 5.50293C0.624802 7.58789 1.3826 9.9834 2.29272 12.155C2.30835 12.2058 2.33276 12.1814 2.33276 12.1306C2.20093 11.1121 2.9841 9.82617 4.5202 9.3584C11.9023 7.00903 19.8468 7.11401 27.1641 9.6582C27.434 9.75049 27.7196 9.78784 28.0042 9.76782C28.2887 9.74805 28.5664 9.67139 28.8209 9.54248C29.0754 9.41382 29.3015 9.23511 29.4859 9.01758C29.6702 8.7998 29.8092 8.54761 29.8945 8.27539C30.8046 5.3457 31.1718 3.35645 31.2626 2.8584C31.2782 2.76562 31.1962 2.73047 31.1718 2.70508L31.1718 2.7041ZM8.66949 9.14941C7.55136 9.38281 6.00551 9.75 4.84538 10.1348C2.52611 10.9346 2.63353 13.7566 3.86885 14.657C3.95967 14.1335 4.5202 13.4216 5.14517 13.1814C7.46054 12.2712 9.94679 11.7273 12.4604 11.5027C11.1831 10.9841 9.93703 10.2412 8.6861 9.14844L8.66949 9.14941ZM27.1328 14.7996C23.8008 13.2339 20.1887 12.3523 16.5101 12.2065C12.8315 12.0608 9.16093 12.6538 5.71547 13.9509C4.61101 14.3679 3.91963 15.7117 4.61101 16.9871C5.81883 19.1707 7.18953 21.2603 8.71149 23.2378C8.49274 22.48 8.87944 21.0767 10.3638 20.6177C14.4691 19.356 18.7766 19.8911 21.6398 21.0503C22.4484 21.3755 23.5929 21.1782 24.2345 20.2173C25.3286 18.532 26.3237 16.7842 27.2148 14.9832C27.2549 14.9021 27.2148 14.8416 27.1328 14.7996ZM20.4807 24.9165C19.2797 24.3101 18.1814 23.5188 17.2259 22.5718C16.7835 22.1294 16.1322 21.4937 15.4457 20.7358C13.8783 20.7358 12.3569 20.8931 10.73 21.4126C9.21928 21.8853 9.07768 23.6304 9.7388 24.5405C10.8569 25.9341 11.6411 26.686 12.892 27.9788C13.555 28.6292 14.4452 28.9954 15.3738 29C16.3024 29.0044 17.1962 28.647 17.8655 28.0032C18.842 27.0269 19.4426 26.3755 20.5461 25.1245C20.6115 25.0581 20.5861 24.9419 20.4797 24.9165L20.4807 24.9165Z" fill="#000000" fill-opacity="1.000000" fill-rule="nonzero"/>
</svg>
